<svg preserveAspectRatio="none" width="100%" height="100%" overflow="visible" style="display: block;" viewBox="0 0 106.093 101.282" fill="none" xmlns="http://www.w3.org/2000/svg">
<g id="Group 13808">
<path id="150" d="M106.093 46.0933C106.093 45.8835 105.626 45.5896 105.056 45.4398C101.385 44.4777 74.2125 33.6889 74.2097 33.1926C74.2078 32.8645 75.4362 28.7987 76.939 24.158C80.0214 14.641 82.6518 5.72665 82.4364 5.52517C82.2174 5.31998 59.101 18.7882 55.5768 21.1755C54.867 21.6561 54.5943 21.5646 53.7967 20.584C53.2773 19.9472 49.4952 15.5912 45.3916 10.9034C41.287 6.21651 37.4874 1.8448 36.9467 1.19043L35.9642 0L35.6675 1.83648C35.3348 3.89202 34.0177 22.1672 34.0076 24.8697C34.003 26.1627 33.8089 26.6073 33.2497 26.6073C32.8356 26.6073 27.6728 25.4603 21.7751 24.0592C10.4826 21.3751 9.9706 21.2818 9.9706 21.8973C9.9706 22.4824 14.1122 29.2109 19.519 37.4127C22.1763 41.4443 24.461 45.0322 24.5969 45.3862C24.7521 45.7929 24.4453 46.1108 23.7604 46.2541C20.8121 46.8696 0.843632 51.7497 0.0774283 52.0417C-0.847746 52.3939 6.60171 55.5169 17.9423 59.5309C20.9285 60.5883 23.3722 61.6059 23.3722 61.7935C23.3722 61.9811 21.6272 67.2244 19.4941 73.4446C14.9856 86.5948 14.9089 86.8388 15.2527 86.8388C15.7037 86.8388 23.7632 82.2832 31.7339 77.5206C35.9522 75.0011 39.6058 72.94 39.8553 72.94C40.1039 72.94 42.4451 77.0362 45.0579 82.0429C47.6698 87.0496 50.5942 92.4352 51.5554 94.0101C52.5175 95.585 53.83 97.8661 54.4742 99.0787C54.8642 99.8135 55.2542 100.547 55.6443 101.282C55.7275 100.459 55.8106 99.6342 55.8929 98.8097C56.2321 95.4307 57.0306 82.8849 57.4022 75.0999C57.7599 67.607 56.8781 68.0627 64.9635 71.1931C67.886 72.3244 74.5406 74.6674 79.7515 76.3994C82.9087 77.4485 86.0678 78.4984 89.2251 79.5484C88.2842 78.3311 87.3442 77.113 86.4033 75.8957C84.8506 73.8873 81.0556 69.0461 77.9695 65.1374C74.8825 61.2279 72.3575 57.8488 72.3575 57.6279C72.3575 57.407 73.8649 56.7896 75.7079 56.2563C83.466 54.0132 106.093 46.4445 106.093 46.0933Z" fill="var(--fill-0, #FBB582)"/>
<path id="161" d="M52.2563 34.0247C52.9837 32.5838 54.4098 32.264 55.2112 33.3629C55.9718 34.4055 56.0023 36.8945 55.2648 37.6339C54.4154 38.4851 52.6732 38.2956 52.138 37.2937C51.5188 36.132 51.5437 35.4369 52.2563 34.0247Z" fill="var(--fill-0, #0D0D0D)"/>
<path id="161_2" d="M41.982 33.4237C43.7178 31.8488 45.2955 32.969 45.2955 35.7769C45.2955 37.3758 44.5524 38.2169 43.1401 38.2169C41.214 38.2169 40.4025 34.8563 41.982 33.4237Z" fill="var(--fill-0, #0D0D0D)"/>
</g>
</svg>
