<svg preserveAspectRatio="none" width="100%" height="100%" overflow="visible" style="display: block;" viewBox="0 0 263 232.38" fill="none" xmlns="http://www.w3.org/2000/svg">
<g id="Group 13845">
<path id="131" d="M244.305 150.013C253.708 126.35 256.498 107.642 253.165 90.6011C250.904 79.0518 247.213 69.3624 239.753 55.3834C223.917 25.7072 211.016 13.3107 188.342 5.98315C171.24 0.456508 157.364 -0.83653 129.126 0.468373C80.7291 2.70619 56.3906 11.1142 34.7445 33.0761C23.7001 44.28 15.0114 59.8236 12.6703 72.5597C9.21907 91.3331 12.7677 143.373 18.5512 158.872C22.8704 170.442 28.8016 179.122 41.458 192.407C59.3251 211.157 82.1873 225.523 102.168 230.553C110.922 232.759 114.214 232.871 127.307 231.404C145.446 229.372 173.581 220.578 192.773 210.944C215.264 199.658 232.836 178.88 244.305 150.013Z" fill="var(--fill-0, white)"/>
<path id="161" d="M211.087 103.67C213.742 106.99 213.66 114.537 210.941 116.93C208.06 119.467 202.528 118.521 201.016 115.23C199.188 111.254 199.757 104.22 202.069 102.183C204.784 99.7894 208.465 100.396 211.087 103.67Z" fill="var(--fill-0, #0D0D0D)"/>
<path id="161_2" d="M143.134 111.094C148.922 120.524 140.51 130.601 133.824 122.252C132.229 120.26 131.72 117.448 132.271 113.651C132.977 108.782 133.627 107.982 137.037 107.8C139.794 107.654 141.632 108.646 143.134 111.094Z" fill="var(--fill-0, #0D0D0D)"/>
<g id="Vector">
<path fill-rule="evenodd" clip-rule="evenodd" d="M115.213 100.578C133.595 90.6804 154.804 89.2653 160.46 100.578C166.14 111.937 169.651 126.736 160.46 133.099C145.932 143.157 125.526 147.447 115.213 133.099C107.8 122.786 104.03 106.599 115.213 100.578ZM153.643 105.935C149.64 98.2124 134.631 99.1784 121.623 105.935C113.709 110.046 116.377 121.098 121.623 128.139C128.921 137.934 143.362 135.006 153.643 128.139C160.147 123.795 157.662 113.691 153.643 105.935Z" fill="#FBB582"/>
<path fill-rule="evenodd" clip-rule="evenodd" d="M231.183 93.5071C212.801 83.6101 191.592 82.1953 185.935 93.5071C180.256 104.867 176.745 119.666 185.935 126.029C200.464 136.087 220.87 140.377 231.183 126.029C238.595 115.716 242.365 99.5281 231.183 93.5071ZM192.751 98.8662C196.754 91.143 211.764 92.1091 224.773 98.8662C232.686 102.977 230.018 114.028 224.773 121.069C217.474 130.865 203.033 127.936 192.751 121.069C186.247 116.725 188.732 106.622 192.751 98.8662Z" fill="#FBB582"/>
<path d="M185.231 115.239V104.634L161.932 111.487L161.194 119.481L185.231 115.239Z" fill="#FBB582"/>
<path d="M20.5027 69.9916C50.1962 85.074 109.725 115.663 110.29 117.36L115.239 132.207L20.5027 80.5964C16.7321 83.1887 8.90806 88.3733 7.77688 88.3733C6.6457 88.3733 2.12097 83.1887 0 80.5964L20.5027 69.9916Z" fill="#FBB582"/>
<path d="M247.446 59.3867L230.478 99.6851L234.72 107.462L250.981 71.4055H261.586L263 62.2147L247.446 59.3867Z" fill="#FBB582"/>
</g>
</g>
</svg>
