<svg preserveAspectRatio="none" width="100%" height="100%" overflow="visible" style="display: block;" viewBox="0 0 255 230.725" fill="none" xmlns="http://www.w3.org/2000/svg">
<g id="Group 13815">
<path id="161" d="M155.696 83.2838C157.752 79.829 164.419 79.6554 165.707 83.0186C167.074 86.5902 166.847 93.604 165.284 96.0766C164.526 97.2703 161.981 97.9556 159.388 97.6588C155.412 97.204 154.774 96.4177 154.436 91.5955C154.222 88.5481 154.787 84.806 155.696 83.2838Z" fill="var(--fill-0, #0D0D0D)"/>
<path id="161_2" d="M180.922 85.6525C182.712 81.184 188.078 81.0008 190.389 85.3304C192.83 89.9062 191.665 98.0727 188.274 100.135C185.949 101.553 184.838 101.177 182.352 98.1422C179.04 94.0905 178.705 91.1852 180.922 85.6525Z" fill="var(--fill-0, #0D0D0D)"/>
<path id="150" d="M252.549 96.3495C257.694 115.55 254.453 146.956 245.501 164.678C234.947 185.568 216.223 205.797 197.011 217.065C172.574 231.396 131.047 234.92 98.767 225.399C66.6128 215.919 36.0439 188.647 16.1046 151.648C2.66442 126.707 -2.30592 104.415 0.978344 83.8062C8.22582 38.3065 51.3095 2.93441 102.746 0.247006C129.63 -1.15512 148.378 3.23442 178.505 17.9883C216.858 36.7718 244.389 65.9069 252.549 96.3495ZM155.695 83.2788C154.786 84.8009 154.221 88.5431 154.435 91.5905C154.773 96.4127 155.411 97.199 159.387 97.6537C161.98 97.9506 164.525 97.2653 165.283 96.0716C166.846 93.5989 167.073 86.5852 165.706 83.0135C164.418 79.6503 157.751 79.824 155.695 83.2788ZM180.921 85.6536C178.704 91.1863 179.039 94.0916 182.351 98.1432C184.837 101.178 185.948 101.554 188.273 100.136C191.664 98.0737 192.829 89.9073 190.388 85.3314C188.077 81.0019 182.711 81.1851 180.921 85.6536Z" fill="var(--fill-0, #67CDCD)"/>
</g>
</svg>
