<svg preserveAspectRatio="none" width="100%" height="100%" overflow="visible" style="display: block;" viewBox="0 0 97.7169 100.925" fill="none" xmlns="http://www.w3.org/2000/svg">
<g id="Group 13821">
<path id="150" d="M97.2562 48.9023C97.9867 51.4466 97.8599 53.7231 96.7936 57.1881C93.0552 69.3305 82.4777 82.6831 69.8878 91.1562C50.3528 104.303 32.9941 104.165 28.5555 90.8307C27.2554 86.9258 26.6792 80.821 27.2337 76.8338C27.5034 74.8941 27.6036 73.1105 27.456 72.8721C27.3084 72.6336 26.6149 73.7946 25.9128 75.4514C21.5121 85.8481 17.2656 91.4893 11.8127 94.184C9.82098 95.169 8.93346 95.3497 7.31075 95.1065C1.59578 94.2465 -0.912545 89.4152 0.297628 81.5959C2.04334 70.3126 11.7086 52.354 23.2975 38.8576C30.9049 29.9994 38.8585 21.427 42.4427 18.2251C51.5828 10.0585 53.8877 8.28536 59.9821 4.72296C67.8402 0.130173 73.0887 -1.03269 77.3021 0.88523C84.406 4.11835 81.6271 16.0867 68.179 40.1813C66.5033 43.1826 65.224 45.7298 65.3347 45.8405C65.4454 45.9521 66.1418 45.7298 66.8808 45.3475C72.8333 42.2743 84.4429 40.7784 89.9299 42.3774C93.1081 43.3037 96.5211 46.3438 97.2562 48.9023Z" fill="var(--fill-0, #FB652B)"/>
<path id="161" d="M41.3891 43.8167C42.7374 42.5942 44.2674 43.5451 44.2674 45.604C44.2674 47.838 43.3014 48.9781 41.7392 48.5845C40.6539 48.3111 40.4827 48.0225 40.4827 46.4537C40.4827 45.2672 40.7968 44.3541 41.3891 43.8167Z" fill="var(--fill-0, #0D0D0D)"/>
<path id="161_2" d="M53.513 43.8802C54.8595 42.53 56.7518 43.5727 56.7518 45.6657C56.7518 47.4493 55.7337 48.6282 54.3598 48.4333C53.3824 48.2952 53.1818 47.9763 53.0636 46.3706C52.985 45.3043 53.1828 44.2124 53.513 43.8802Z" fill="var(--fill-0, #0D0D0D)"/>
</g>
</svg>
