<svg preserveAspectRatio="none" width="100%" height="100%" overflow="visible" style="display: block;" viewBox="0 0 96.3209 96.8111" fill="none" xmlns="http://www.w3.org/2000/svg">
<g id="Group 13813">
<path id="149" d="M95.5948 51.3835C96.7489 53.8959 96.56 55.4958 94.7921 58.1796C93.5074 60.133 88.7363 63.2252 84.2649 65.0019C81.434 66.1264 69.4364 68.7068 66.9273 68.7299C65.6963 68.7409 65.3932 69.1417 64.529 71.9078C63.3321 75.7346 59.3 83.9954 57.2609 86.7988C52.9059 92.7822 47.488 96.7979 43.7501 96.8111C39.5763 96.8254 36.2118 93.6926 33.572 87.3358C31.9084 83.33 30.1789 75.393 30.1789 71.7672C30.1789 67.5989 29.7133 66.7698 26.9714 66.0638C19.9371 64.2519 7.86265 57.4175 3.04977 52.5233C0.258449 49.6848 -0.333442 47.7412 0.154105 43.0096C0.41984 40.428 0.793216 39.6198 2.55783 37.8014C6.62841 33.6078 15.3494 30.6606 25.8339 29.9347C27.5875 29.8129 29.3411 29.6921 31.0958 29.5702C31.4319 28.4392 31.769 27.307 32.1061 26.1749C34.5306 18.025 43.3482 3.46771 47.3364 1.02888C49.6018 -0.355803 50.735 -0.345918 53.031 1.07719C56.1068 2.98346 60.61 14.0752 62.849 25.2558C63.364 27.8297 63.9614 30.2565 64.1766 30.6485C64.3907 31.0416 67.2611 32.4636 70.5554 33.8099C81.9238 38.4547 93.3394 46.4663 95.5948 51.3835Z" fill="var(--fill-0, #67CDCD)"/>
<path id="161" d="M50.2702 39.8649C52.283 40.583 52.2456 45.1796 50.2208 45.8198C48.746 46.2876 47.6194 44.8029 47.6194 42.3927C47.6194 40.5402 48.8559 39.3609 50.2702 39.8649Z" fill="var(--fill-0, #0D0D0D)"/>
<path id="161_2" d="M37.5211 42.0039C38.7015 43.6862 38.5939 45.5716 37.2773 46.2743C34.9461 47.5185 32.5951 44.4526 33.9468 41.9336C34.7506 40.4336 36.4417 40.4677 37.5211 42.0039Z" fill="var(--fill-0, #0D0D0D)"/>
</g>
</svg>
