<svg preserveAspectRatio="none" width="100%" height="100%" overflow="visible" style="display: block;" viewBox="0 0 227 230.983" fill="none" xmlns="http://www.w3.org/2000/svg">
<g id="Group 13849">
<path id="161" d="M95.5607 100.402C95.9334 98.9655 97.3237 98.252 99.7365 98.252C104.702 98.252 107.08 103.136 104.425 107.883C99.8666 116.019 93.0008 110.225 95.5607 100.402Z" fill="var(--fill-0, #0D0D0D)"/>
<path id="131" d="M225.39 107.392C229.325 116.45 225.792 128.626 217.577 134.325C212.666 137.733 203.709 141.274 199.996 141.274C196.792 141.274 197.074 142.125 202.11 147.718C214.883 161.89 213.625 179.596 199.126 189.782C194.19 193.247 193.047 193.512 183.188 193.499C174.561 193.487 171.597 192.967 167.404 190.734C164.565 189.221 161.944 187.982 161.581 187.982C161.215 187.982 160.919 191.653 160.919 196.138C160.919 200.623 160.279 206.436 159.494 209.053C157.682 215.121 150.596 223.456 145.402 225.633C139.659 228.039 130.548 227.666 124.138 224.765C118.04 222.007 108.977 213.812 106.231 208.572C105.255 206.713 104.059 205.205 103.571 205.223C103.083 205.24 101.611 207.581 100.302 210.426C97.2248 217.105 89.3269 225.658 83.4788 228.649C65.7998 237.692 49.5795 219.54 49.0205 190.094C48.9641 187.136 48.9077 184.179 48.8538 181.222C44.9207 181.222 40.9902 181.222 37.0572 181.222C26.0721 181.222 24.8509 180.967 19.2628 177.505C11.2888 172.566 6.74526 165.843 4.98961 156.376C3.00837 145.695 4.68065 140.803 12.9268 133.16C16.4994 129.847 20.501 126.525 21.8178 125.777C23.9903 124.541 23.6347 124.122 17.9754 121.246C5.92128 115.123 -0.132657 105.214 0.00220433 91.8386C0.102737 81.5107 3.63353 74.417 10.7346 70.2583C15.0477 67.7328 16.7887 67.4581 25.2285 67.9608C33.8253 68.4733 34.7253 68.3188 33.9284 66.4896C29.9291 57.3215 28.3132 50.4288 28.9311 45.157C31.2483 25.3054 49.2828 19.8669 65.4907 34.1352C66.9447 35.4151 68.4013 36.6975 69.8553 37.9799C70.0613 34.3828 70.2648 30.7857 70.4683 27.1886C71.2187 13.9918 74.3695 5.99086 80.2249 2.41337C85.4012 -0.752194 93.4095 -0.808589 99.3606 2.2736C105.29 5.34598 113.479 13.8717 117.089 20.7275C118.665 23.7239 120.482 26.3157 121.127 26.4873C121.772 26.659 123.971 24.4816 126.011 21.6544C128.052 18.8247 132.392 14.7127 135.653 12.5157C140.611 9.17359 142.72 8.52135 148.553 8.52135C158.05 8.52135 164.739 12.832 169.101 21.7598C171.918 27.5294 172.2 29.3218 171.693 38.1393C171.139 47.7243 171.202 48.0136 173.684 47.2682C175.091 46.8464 180.657 46.2089 186.052 45.8534C194.685 45.2845 196.512 45.5493 201.306 48.0676C214.37 54.9308 214.912 72.9556 202.436 85.7502C200.313 87.9276 198.792 89.8598 199.057 90.0486C199.322 90.2374 202.605 91.3237 206.355 92.4663C214.1 94.8251 222.942 101.759 225.39 107.392ZM77.4591 97.721C73.173 101.61 75.321 109.314 80.6884 109.314C84.4695 109.314 86.7375 104.376 85.151 99.6041C83.8441 95.6686 80.5952 94.8742 77.4591 97.721ZM95.5598 100.403C92.9999 110.226 99.8657 116.02 104.424 107.885C107.08 103.137 104.701 98.2531 99.7356 98.2531C97.3228 98.2531 95.9325 98.9666 95.5598 100.403Z" fill="var(--fill-0, #FB652B)"/>
<path id="161_2" d="M77.4599 97.7227C80.596 94.8759 83.8449 95.6703 85.1518 99.6058C86.7383 104.377 84.4703 109.316 80.6893 109.316C75.3218 109.316 73.1738 101.612 77.4599 97.7227Z" fill="var(--fill-0, #0D0D0D)"/>
</g>
</svg>
