<svg preserveAspectRatio="none" width="100%" height="100%" overflow="visible" style="display: block;" viewBox="0 0 93.529 87.6111" fill="none" xmlns="http://www.w3.org/2000/svg">
<g id="Group 13835">
<path id="151" d="M93.529 26.1693C93.529 25.9009 92.9298 25.4073 92.1974 25.0723C89.4518 23.8178 76.8132 26.8076 65.1554 31.4693C62.3062 32.6086 59.7962 33.4318 59.5785 33.2986C59.3608 33.1655 59.1822 32.6212 59.1822 32.0886C59.1822 29.7372 51.9366 6.88224 49.9371 2.92654C49.2364 1.53998 48.2821 0.25912 47.816 0.0805163C46.3629 -0.479601 44.5515 1.94685 43.8741 5.36145C43.5328 7.07879 42.812 10.1541 42.2709 12.1938C41.7308 14.2335 40.4077 19.9552 39.3308 24.9085C38.255 29.8619 37.3292 33.9718 37.2732 34.0437C37.2182 34.1145 33.7423 33.6865 29.5509 33.0925C19.4699 31.6637 10.2966 31.5496 6.07674 32.7988C3.00772 33.7077 0 35.8456 0 37.118C0 37.4594 0.955373 38.8269 2.12316 40.1574C4.73775 43.1355 12.9366 47.4823 21.4007 50.377C24.5976 51.4708 27.2809 52.4134 27.3633 52.4726C27.4457 52.5318 27.0452 54.3411 26.4714 56.4928C23.8959 66.1691 22.3064 78.9059 23.0345 84.0347C23.4594 87.0361 23.6581 87.4429 24.7741 87.6015C26.4671 87.8414 30.7927 83.5802 37.5944 74.9724C40.4722 71.3306 43.6733 67.3348 44.7069 66.0919C45.3336 65.3395 45.9592 64.586 46.587 63.8324C47.3997 64.5511 48.2134 65.2687 49.0272 65.9873C54.2014 70.5528 69.6733 80.0494 76.6198 82.9229C82.0223 85.157 84.5227 85.4688 85.7878 84.0664C87.1204 82.5911 86.349 80.3569 82.9534 75.8602C80.0926 72.0725 69.2643 60.8649 65.5231 57.8212L63.1453 55.8872C63.6938 55.4043 64.2423 54.9202 64.7908 54.4362C65.6954 53.6394 68.7856 51.0523 71.6601 48.6871C81.8046 40.3382 93.529 28.266 93.529 26.1693Z" fill="var(--fill-0, #67CDCD)"/>
<path id="161" d="M46.4194 40.8347C46.6128 40.6402 47.3029 40.4816 47.9517 40.4816C49.6585 40.4816 50.6192 43.3467 49.4915 45.0725C48.6408 46.3745 48.2593 46.5098 46.9023 45.9877C46.3232 45.7647 46.0664 44.9795 46.0664 43.4271C46.0664 42.1959 46.2249 41.0291 46.4194 40.8347Z" fill="var(--fill-0, #0D0D0D)"/>
<path id="161_2" d="M32.4266 41.4092C33.8248 39.0969 36.6307 41.4926 35.9067 44.3809C35.559 45.7738 33.6874 46.7461 32.8916 45.9482C32.1148 45.1694 31.8306 42.3952 32.4266 41.4092Z" fill="var(--fill-0, #0D0D0D)"/>
</g>
</svg>
