<svg preserveAspectRatio="none" width="100%" height="100%" overflow="visible" style="display: block;" viewBox="0 0 101.905 75.7955" fill="none" xmlns="http://www.w3.org/2000/svg">
<g id="blue">
<path id="151" d="M101.339 25.6727C102.164 28.3256 102.144 28.6441 100.899 32.5783C98.7992 39.2088 93.8447 46.2076 85.5239 54.2933C79.5464 60.1023 74.9441 63.8607 69.0775 67.7239C64.689 70.6128 58.1711 74.0572 54.9006 75.2142C49.7687 77.0296 41.2784 74.5434 31.7909 68.4461C18.7418 60.0597 6.69885 47.9653 2.06819 38.5957C0.4436 35.3102 0.161443 34.3146 0.0327887 31.4115C-0.0834436 28.7941 0.0931486 27.4809 0.824259 25.5298C1.97771 22.4519 5.16474 19.0616 8.44853 17.421C12.7438 15.2747 18.1153 16.1176 21.5881 19.4813C22.069 19.9471 22.549 20.412 23.0299 20.8778C23.0299 19.7679 23.0299 18.6579 23.0299 17.5479C23.0299 9.47465 26.0289 3.91236 31.837 1.21062C36.756 -1.07676 41.6928 -0.101648 45.7405 3.95672C47.8433 6.06576 50.0917 10.1073 50.0917 11.7798C50.0917 12.2846 50.2913 12.6972 50.5353 12.6972C50.7793 12.6972 50.9789 12.486 50.9789 12.2269C50.9789 11.2146 53.7729 6.16779 55.1109 4.76235C55.8882 3.94518 57.5225 2.74559 58.7425 2.09611C60.6936 1.05623 61.4673 0.914282 65.1752 0.913395C68.648 0.912508 69.7021 1.08108 71.1643 1.87163C76.4027 4.70114 78.3556 10.5518 76.4773 17.7822C76.1055 19.2133 75.8766 20.4608 75.968 20.5531C76.0611 20.6454 77.613 20.0207 79.4177 19.1636C83.9862 16.9943 88.4226 16.343 92.119 17.2977C96.9253 18.5399 99.9828 21.3162 101.339 25.6727Z" fill="var(--fill-0, #FB652B)"/>
<path id="161" d="M34.9558 32.0537C36.4152 33.7567 35.8234 36.6791 33.7508 38.0163C32.049 39.1124 30.4797 36.7486 30.7395 33.4816C30.9791 30.4755 33.0143 29.7864 34.9558 32.0537Z" fill="var(--fill-0, #0D0D0D)"/>
<path id="161_2" d="M46.7502 29.5144C47.2964 31.6737 46.5634 33.6086 45.0143 34.0949C42.4428 34.9049 40.9689 32.0323 42.4999 29.1958C43.4976 27.3474 46.2546 27.5538 46.7502 29.5144Z" fill="var(--fill-0, #0D0D0D)"/>
</g>
</svg>
