<svg preserveAspectRatio="none" width="100%" height="100%" overflow="visible" style="display: block;" viewBox="0 0 155.844 76.2768" fill="none" xmlns="http://www.w3.org/2000/svg">
<g id="Group 13847">
<path id="150" d="M155.379 54.3389C155.676 59.8229 155.882 66.874 155.838 70.0081C155.81 71.9076 155.783 73.8056 155.756 75.7052C153.566 75.8344 151.374 75.9637 149.183 76.093C145.569 76.3076 110.788 76.3388 71.8941 76.1627C48.3221 76.0575 24.7501 75.951 1.17809 75.8444C1.066 75.2278 0.955241 74.6112 0.841767 73.9946C-0.222392 68.127 -0.290158 53.0162 0.710345 44.7249C2.70166 28.2303 6.06298 18.8024 12.1587 12.5981C17.027 7.64546 21.2781 5.9661 28.878 5.99309C35.7515 6.01866 40.3541 8.23216 45.5573 14.0174C49.1621 18.0238 50.7036 21.0982 52.3061 27.4744C52.9856 30.1781 54.3915 31.0916 54.3915 28.8299C54.3915 27.1847 58.0297 20.8397 60.5233 18.1346C64.8298 13.4633 67.6735 12.3068 74.6299 12.4006C80.031 12.473 80.9776 12.6919 83.4145 14.4294C87.9008 17.6303 93.6921 27.8879 95.8951 36.5344C97.2388 41.8095 97.7287 41.774 98.2158 36.3639C99.666 20.2998 106.473 6.91087 115.486 2.39723C120.392 -0.0592026 127.56 -0.711267 132.713 0.830218C145.293 4.59514 153.762 24.5904 155.379 54.3389Z" fill="var(--fill-0, #FBB582)"/>
<path id="161" d="M61.2106 43.36C60.565 38.2548 67.178 39.9996 68.6254 45.318C69.1719 47.3227 68.9189 47.7952 66.7787 48.7558C64.6332 49.7175 64.1064 49.5728 62.8896 47.6903C62.1155 46.4928 61.3609 44.5439 61.2106 43.36Z" fill="var(--fill-0, #0D0D0D)"/>
<path id="161_2" d="M45.0338 52.773C43.1433 55.8835 38.269 52.7633 39.3349 49.1273C40.1873 46.2195 42.6963 43.6949 44.2778 44.1585C47.3437 45.0572 47.6438 48.4803 45.0338 52.773Z" fill="var(--fill-0, #0D0D0D)"/>
</g>
</svg>
