<svg preserveAspectRatio="none" width="100%" height="100%" overflow="visible" style="display: block;" viewBox="0 0 184.314 100" fill="none" xmlns="http://www.w3.org/2000/svg">
<g id="Group 13847">
<path id="150" d="M183.764 71.2391C184.115 78.4287 184.359 87.6728 184.307 91.7817C184.274 94.272 184.242 96.7603 184.21 99.2506C181.62 99.4201 179.027 99.5896 176.436 99.7591C172.162 100.04 131.027 100.081 85.0279 99.8504C57.1497 99.7125 29.2715 99.5728 1.3933 99.4331C1.26074 98.6248 1.12974 97.8164 0.995535 97.008C-0.263027 89.3155 -0.343174 69.505 0.840104 58.635C3.1952 37.0103 7.17057 24.6502 14.3799 16.5162C20.1375 10.0232 25.1652 7.82158 34.1535 7.85697C42.2826 7.89049 47.7261 10.7924 53.8798 18.3769C58.1432 23.6294 59.9663 27.66 61.8615 36.0193C62.6651 39.5638 64.3279 40.7616 64.3279 37.7963C64.3279 35.6394 68.6306 27.3211 71.5798 23.7747C76.673 17.6505 80.0362 16.1343 88.2635 16.2573C94.6512 16.3523 95.7707 16.6392 98.6528 18.9171C103.959 23.1135 110.808 36.5614 113.413 47.8971C115.003 54.8129 115.582 54.7663 116.158 47.6736C117.873 26.6133 125.924 9.06019 136.583 3.14274C142.385 -0.0776822 150.863 -0.932549 156.957 1.08836C171.836 6.02423 181.852 32.2383 183.764 71.2391Z" fill="var(--fill-0, #FBB582)"/>
<path id="161" d="M50.5001 53.5C53.1441 50.3785 56.9706 51.6199 58.7061 58.6897C59.3614 61.3546 59.1184 62.7483 57.5001 64C55.5181 65.5331 52.595 63.8356 51.0001 61.5001C49.8127 59.7613 48.491 55.8719 50.5001 53.5Z" fill="var(--fill-0, #0D0D0D)"/>
<path id="161_2" d="M31.995 63.4057C29.7377 66.9374 24.0744 62.7784 25.3735 58.546C26.4124 55.1612 29.3858 52.3835 31.2309 53.0795C34.8081 54.4287 35.1114 58.532 31.995 63.4057Z" fill="var(--fill-0, #0D0D0D)"/>
</g>
</svg>
