<svg preserveAspectRatio="none" width="100%" height="100%" overflow="visible" style="display: block;" viewBox="0 0 155 122" fill="none" xmlns="http://www.w3.org/2000/svg">
<g id="165">
<path d="M154.295 54.7982C155.197 56.1501 155.24 58.4933 154.387 59.8666C153.822 60.7783 148.414 64.4402 129.533 76.6969C126.783 78.4822 124.537 80.0511 124.543 80.1841C124.548 80.3166 129.868 83.7878 136.366 87.8973C142.864 92.0068 148.518 95.7313 148.932 96.1739C150.451 97.7986 150.755 99.3123 149.949 101.234C149.231 102.946 147.934 103.478 142.347 104.347C139.571 104.78 134.739 105.541 131.609 106.038C128.479 106.535 125.398 107.024 124.762 107.122C124.377 107.182 123.993 107.242 123.607 107.302C123.804 107.574 124.001 107.846 124.197 108.118C124.521 108.567 125.577 109.83 126.545 110.926C127.512 112.023 129.117 113.928 130.11 115.162C131.701 117.137 131.917 117.565 131.917 118.759C131.917 119.808 131.727 120.32 131.071 121.034C130.789 121.342 130.507 121.649 130.225 121.956C111.561 121.966 92.8975 121.977 74.2342 121.986C43.4395 122.003 17.8524 122.005 17.3744 121.99C16.0743 121.948 14.7059 120.448 14.7059 119.064C14.7059 117.171 15.4067 116.123 19.7364 111.54C22.0456 109.095 23.9351 107.024 23.9351 106.936C23.9351 106.849 22.101 106.332 19.8589 105.788C9.93994 103.378 3.68746 101.703 2.47413 101.129C0.606757 100.246 -0.122977 98.9536 0.0166917 96.779C0.215427 93.6848 0.051774 93.7958 15.2652 86.4032C22.7242 82.7781 28.834 79.7329 28.8426 79.636C28.858 79.4472 17.7257 70.4594 8.44296 63.1656C1.63119 57.8134 1.30755 57.5087 0.676886 55.8638C-0.230037 53.4973 0.802427 51.0057 3.16264 49.8629C3.62349 49.6398 4.08434 49.4172 4.54518 49.1941C7.13612 49.3706 9.72707 49.5478 12.318 49.7244C20.3406 50.2725 33.8208 51.3098 36.9329 51.6188C38.209 51.7457 38.7018 51.6911 38.7018 51.4232C38.7018 51.037 33.4682 37.0514 29.939 28.0072C27.4336 21.5876 27.2546 20.4939 28.3473 18.269C29.7298 15.4532 32.5669 14.5108 35.2587 15.9755C35.9558 16.355 39.8167 19.1482 43.8376 22.1829C60.2428 34.5623 62.8122 36.4438 63.0054 36.2157C63.1167 36.0845 63.9111 33.7015 64.7706 30.9193C69.3945 15.9546 73.2436 3.9738 73.7285 3.04069C75.1129 0.375008 78.2514 -0.748773 80.7556 0.524597C82.2317 1.27501 83.4401 2.62196 83.8861 4.01243C84.878 7.10849 88.5432 19.4136 90.8505 27.3917C92.313 32.449 93.5596 36.637 93.6217 36.6989C93.6839 36.7608 94.3305 36.4095 95.059 35.919C95.7881 35.4286 98.7378 33.4366 101.614 31.4932C104.491 29.5485 109.267 26.3261 112.228 24.3306C115.189 22.3356 118.442 20.1224 119.457 19.4124C122.118 17.5523 123.094 17.125 124.687 17.125C126.311 17.125 127.42 17.6204 128.572 18.8606C130.319 20.7404 130.532 22.5729 129.307 25.165C128.887 26.0539 126.83 30.5748 124.735 35.2109C122.64 39.847 119.99 45.6811 118.845 48.1745C117.701 50.6686 116.817 52.7512 116.881 52.8021C116.944 52.8542 121.288 52.7892 126.533 52.658C131.778 52.5274 139.398 52.4103 143.465 52.3986C150.546 52.3778 150.918 52.4066 152.23 53.0669C152.984 53.4464 153.913 54.225 154.295 54.7982ZM65.5963 79.4797C65.0641 80.6966 65.0617 81.2871 65.5828 82.5298C67.2324 86.4633 71.5 85.34 71.5 81C71.5 77.0665 67.185 75.8447 65.5963 79.4797ZM87.2665 79C87.1047 79.3783 87.2093 80.5865 87.2665 81.5C87.3545 82.9113 88.1712 83.7619 89 84.5C91.6426 86.853 94.0087 83.732 93.3288 80.1222C93.052 78.6526 91.3193 77.207 89.8359 77.2082C88.4927 77.2095 87.683 78.0252 87.2665 79Z" fill="var(--fill-0, #F8672F)"/>
<path d="M87.2665 79C87.1047 79.3783 87.2093 80.5865 87.2665 81.5C87.3545 82.9113 88.1712 83.7619 89 84.5C91.6426 86.853 94.0087 83.732 93.3288 80.1222C93.052 78.6526 91.3193 77.207 89.8359 77.2082C88.4927 77.2095 87.683 78.0252 87.2665 79Z" fill="#0D0D0D"/>
<path d="M65.5963 79.4797C65.0641 80.6966 65.0617 81.2871 65.5828 82.5298C67.2324 86.4633 71.5 85.34 71.5 81C71.5 77.0665 67.185 75.8447 65.5963 79.4797Z" fill="#0D0D0D"/>
</g>
</svg>
