<svg preserveAspectRatio="none" width="100%" height="100%" overflow="visible" style="display: block;" viewBox="0 0 154 120" fill="none" xmlns="http://www.w3.org/2000/svg">
<g id="Group 13854">
<path id="Vector" d="M38.7574 17.2744C40.4608 17.9265 41.2023 18.0378 41.3188 17.6599C44.3878 7.68542 52.1701 1.34302 62.7637 0.19607C74.1439 -1.03577 84.6476 3.61055 89.5763 12.0565L91.3009 15.0116C100.739 8.38696 112.456 7.25797 122.306 14.1889C129.119 18.9844 131.632 25.6601 132.444 33.6064L134.854 34.1074C147.511 36.7407 154 50.9346 154 62.7651C154 74.6725 147.826 87.2445 135.485 90.3665L133.001 90.9951C131.995 99.007 123.334 106.534 113.362 111.101C100.922 116.797 82.6533 107.707 82.6533 107.707C82.6533 107.707 72.429 121.113 57.8155 119.926C41.1065 118.568 38.8269 102.069 38.8269 102.069C28.7614 105.395 16.7706 104.425 9.03783 96.5623C4.49614 91.9436 -1.40118 84.5181 0.462899 76.0283C1.71384 70.3309 9.03783 63.8094 9.03783 63.8094C9.03783 63.8094 -2.41112 55.6636 0.462899 37.3353C2.94662 21.4961 23.0427 11.2583 38.7574 17.2744Z" fill="var(--fill-0, #FBB582)"/>
<path id="161" d="M42.0903 46.5704C45.7539 48.0816 48.3962 45.4764 47.9511 40.7835C47.6154 37.2506 44.0209 37 44.0209 37C44.0209 37 40.4335 37.1939 40.0907 41.2977C39.7956 44.8159 40.1598 45.7727 42.0903 46.5704Z" fill="var(--fill-0, #0D0D0D)"/>
<path id="161_2" d="M66.2607 46.1699C68.5177 47.925 72.1043 46.6752 73.3032 44.4871C75.7786 39.9623 71.1727 35.0092 67.106 37.8209C65.5362 38.9069 63.7292 44.2013 66.2607 46.1699Z" fill="var(--fill-0, #0D0D0D)"/>
</g>
</svg>
