<svg preserveAspectRatio="none" width="100%" height="100%" overflow="visible" style="display: block;" viewBox="0 0 150 119.226" fill="none" xmlns="http://www.w3.org/2000/svg">
<g id="Group 13853">
<path id="Vector" fill-rule="evenodd" clip-rule="evenodd" d="M61.996 0.486025C38.2343 2.21865 24.4253 7.05485 14.2457 17.2099C0.578031 30.844 -3.85069 55.8661 3.57002 77.5222C15.1575 111.337 51.55 113.063 82 109C88.4378 108.141 97.6897 105.036 104 103.5C109.253 106.062 148.868 127.328 148.868 115.85C148.868 115.396 147.374 113.132 145.548 110.821C126.924 87.241 150.139 75.1202 149.999 48.9422C149.755 3.63049 95.8751 -1.98508 61.996 0.486025Z" fill="var(--fill-0, #FB652B)"/>
<g id="165">
<path d="M65.4265 47.151C66.1862 48.9185 66.1896 49.776 65.4458 51.5808C63.0913 57.2937 57 55.6623 57 49.3591C57 43.6462 63.159 41.8718 65.4265 47.151Z" fill="var(--fill-0, #F8672F)"/>
<path d="M65.4265 47.151C66.1862 48.9185 66.1896 49.776 65.4458 51.5808C63.0913 57.2937 57 55.6623 57 49.3591C57 43.6462 63.159 41.8718 65.4265 47.151Z" fill="#0D0D0D"/>
</g>
<g id="166">
<path d="M39.8759 49.4506C40.1083 49.9679 39.9581 51.6204 39.8759 52.8698C39.7496 54.8 38.5766 55.9632 37.3864 56.9728C33.5911 60.191 30.193 55.9224 31.1695 50.9854C31.5671 48.9755 34.0554 46.9983 36.1859 47C38.1149 47.0017 39.2777 48.1173 39.8759 49.4506Z" fill="var(--fill-0, #F8672F)"/>
<path d="M39.8759 49.4506C40.1083 49.9679 39.9581 51.6204 39.8759 52.8698C39.7496 54.8 38.5766 55.9632 37.3864 56.9728C33.5911 60.191 30.193 55.9224 31.1695 50.9854C31.5671 48.9755 34.0554 46.9983 36.1859 47C38.1149 47.0017 39.2777 48.1173 39.8759 49.4506Z" fill="#0D0D0D"/>
</g>
</g>
</svg>
