<svg preserveAspectRatio="none" width="100%" height="100%" overflow="visible" style="display: block;" viewBox="0 0 130.345 120" fill="none" xmlns="http://www.w3.org/2000/svg">
<g id="Group 13855">
<path id="Vector" fill-rule="evenodd" clip-rule="evenodd" d="M38.217 0.570722C33.7953 1.52233 29.2967 3.94934 26.2526 7.02537C23.0485 10.2634 21.842 12.9495 21.842 16.844C21.842 20.323 22.7536 22.7133 25.1281 25.4587C27.7918 28.539 28.8045 30.7674 28.5522 32.9917C28.1407 36.6141 25.7245 38.2392 20.6979 38.2743C10.9217 38.3427 5.53138 40.7815 2.44308 46.5339C-0.084552 51.2413 -0.69775 58.6188 0.823124 66.027C2.86886 75.993 6.8708 81.8883 12.1592 82.7277C14.6045 83.1156 16.739 82.3339 19.7517 79.9456C21.257 78.7522 23.0959 77.4881 23.8384 77.1366C27.1563 75.5656 30.7452 76.1241 33.6512 78.6637C35.9146 80.6416 37.0436 82.8106 37.3062 85.6888C37.7487 90.5333 35.0229 94.4879 30.3783 95.7385C29.103 96.0818 27.3962 96.54 26.5853 96.7565C24.6613 97.27 22.8555 98.8086 21.8261 100.812C20.7998 102.809 20.9685 106.304 22.2268 109.128C24.2689 113.711 30.621 118.107 37.0957 119.419C40.8656 120.182 42.7964 120.191 46.2767 119.459C50.4071 118.59 52.6403 117.162 57.5006 112.281C62.2156 107.545 63.7611 106.553 67.9433 105.58C71.3078 104.796 74.9552 105.065 79.8354 106.455C91.8782 109.887 91.7799 109.869 97.8956 109.919C101.607 109.95 104.447 109.774 105.854 109.426C116.94 106.686 126.464 98.4472 129.433 89.0311C131.218 83.3692 130.302 75.5711 127.381 71.5683C125.419 68.8802 123.626 67.769 120.936 67.5759C118.342 67.3898 117.241 67.7287 113.731 69.7935C109.337 72.3781 104.48 71.7591 101.243 68.2016C99.3075 66.0752 98.5948 64.2213 98.5932 61.31C98.5908 56.802 101.054 53.6284 105.594 52.2901C106.692 51.9666 108.252 51.7015 109.06 51.7015C112.57 51.7015 115.658 49.7359 117.128 46.5662C119.496 41.4614 116.614 30.9281 111.053 24.3577C107.157 19.7561 101.838 16.4739 96.105 15.136C89.5969 13.6171 81.7379 15.1632 75.2644 19.2363C67.4961 24.1243 67.4229 24.1586 64.3453 24.3467C61.8328 24.4999 61.3163 24.4083 60.0926 23.591C58.4986 22.5264 56.9092 19.7064 56.9092 17.9422C56.9092 17.2821 57.1647 15.4089 57.4771 13.7795C58.1659 10.1824 57.795 7.67084 56.193 5.08898C54.8918 2.99181 51.7931 0.99063 48.8894 0.372422C46.2273 -0.194039 41.3511 -0.10358 38.217 0.570722Z" fill="var(--fill-0, #67CDCD)"/>
<path id="161" d="M61.8727 42.7208C61.2048 37.4396 68.0458 39.2446 69.5432 44.7464C70.1086 46.8202 69.8149 48.5651 68.1248 49.3794C66.3502 50.2343 64.2111 48.7406 62.9524 46.7932C62.1515 45.5544 62.0282 43.9456 61.8727 42.7208Z" fill="var(--fill-0, #1C1C1C)"/>
<path id="161_2" d="M49.742 53.1571C49.8033 56.9221 43.8164 56.8801 42.7437 53.1101C41.8857 50.0951 42.689 46.5017 44.3287 46.0351C47.5076 45.1305 49.6584 47.9607 49.742 53.1571Z" fill="var(--fill-0, #1C1C1C)"/>
</g>
</svg>
