<svg preserveAspectRatio="none" width="100%" height="100%" overflow="visible" style="display: block;" viewBox="0 0 186.404 120" fill="none" xmlns="http://www.w3.org/2000/svg">
<g id="Group 13826">
<path id="131" d="M0 70.063C0.305688 68.4656 0.609606 66.8665 0.913527 65.2691C2.8042 55.3581 6.42651 44.5071 10.9977 35.075C14.8586 27.1094 17.0072 23.9571 22.7764 17.8027C34.5587 5.22884 45.316 0.132904 60.0774 0.131137C64.6945 0.12937 70.2128 0.533976 72.3438 1.0252C82.8185 3.44596 91.9344 10.9185 97.2176 21.4144C98.17 23.3033 99.1207 25.1958 100.073 27.0847C100.527 26.3496 100.983 25.6145 101.439 24.8795C102.188 23.6655 106.079 19.3806 110.083 15.3555C118.072 7.32805 126.175 2.66672 135.073 0.986318C164.789 -4.62915 186.353 14.191 186.404 45.7846C186.427 60.3039 181.851 72.8531 171.537 86.5525C154.814 108.767 137.024 119.667 117.494 119.667C104.119 119.667 95.9825 113.665 87.4656 97.5219C87.3066 96.4988 87.1476 95.4757 86.9903 94.4526C86.2464 89.6641 84.824 89.7684 81.2812 94.8661C78.8463 97.3346 76.4132 99.8031 73.9765 102.272C67.9935 108.338 65.3183 110.318 59.178 113.229C47.2933 118.863 42.9642 120.023 33.9013 120C23.492 119.975 18.3501 117.644 10.7627 109.511C2.28471 100.427 0.0229708 92.1344 0 70.063Z" fill="var(--fill-0, #67CDCD)"/>
<path id="161" d="M87.9687 36.024C89.4441 37.4959 89.3028 43.3588 87.7602 44.6363C85.9879 46.1011 83.0159 44.3978 82.2861 41.4999C81.1252 36.8846 85.0444 33.1085 87.9687 36.024Z" fill="var(--fill-0, #0D0D0D)"/>
<path id="162" d="M112.879 41.7269C112.415 44.1416 108.232 45.0429 106.734 43.0498C105.014 40.7592 105.06 36.1333 106.818 34.5296C109.617 31.9774 113.797 36.9413 112.879 41.7269Z" fill="var(--fill-0, #0D0D0D)"/>
</g>
</svg>
