<svg preserveAspectRatio="none" width="100%" height="100%" overflow="visible" style="display: block;" viewBox="0 0 130 145" fill="none" xmlns="http://www.w3.org/2000/svg">
<g id="151">
<path d="M129.608 20.4741C131.964 38.0564 123.503 70.2922 109.66 96.4782C95.8111 122.676 76.1329 143.172 63.1422 144.929C52.2975 146.398 31.3532 124.824 18.6136 99.0646C12.2285 86.1565 8.1466 74.8082 4.50551 59.8399C-3.33709 27.6126 -0.874973 6.56684 11.3742 1.0999C15.9533 -0.943108 19.9241 -0.21911 26.9056 3.93742C37.8135 10.4276 51.9421 28.3074 60.4391 46.3729C61.7753 49.2121 63.1097 52.0496 64.4459 54.8889C65.7564 52.4022 67.0686 49.9155 68.3774 47.4288C81.8465 21.8808 101.19 2.94343 113.815 2.94343C122.397 2.94343 128.108 9.28226 129.608 20.4741ZM54.4504 81.3912C52.3915 83.4703 52.3266 84.2975 54.0847 86.0723C56.7588 88.7705 62.1392 87.0834 62.1392 83.5477C62.1392 79.8005 57.355 78.4608 54.4504 81.3912ZM86.5452 80.5073C85.0092 81.0972 84.3514 81.9845 84.3514 83.4755C84.3514 86.1204 85.4961 86.865 89.3337 86.7189C93.0619 86.5779 94.1178 85.5804 93.4361 82.8444C92.8125 80.3336 89.7267 79.288 86.5452 80.5073Z" fill="var(--fill-0, #F6F6F5)"/>
<path d="M54.4504 81.3912C52.3915 83.4703 52.3266 84.2975 54.0847 86.0723C56.7588 88.7705 62.1392 87.0834 62.1392 83.5477C62.1392 79.8005 57.355 78.4608 54.4504 81.3912Z" fill="#1C1C1C"/>
<path d="M86.5452 80.5073C85.0092 81.0972 84.3514 81.9845 84.3514 83.4755C84.3514 86.1204 85.4961 86.865 89.3337 86.7189C93.0619 86.5779 94.1178 85.5804 93.4361 82.8444C92.8125 80.3336 89.7267 79.288 86.5452 80.5073Z" fill="#1C1C1C"/>
</g>
</svg>
