<svg preserveAspectRatio="none" width="100%" height="100%" overflow="visible" style="display: block;" viewBox="0 0 166 160.447" fill="none" xmlns="http://www.w3.org/2000/svg">
<g id="Group 13833">
<path id="161" d="M71.9227 71.5934C72.8312 66.8549 78.6326 66.4907 79.7866 71.1005C80.8119 75.1918 79.0325 78.7409 75.7666 79.1169C71.7248 79.5821 70.7549 77.6799 71.9227 71.5934Z" fill="var(--fill-0, #0D0D0D)"/>
<path id="161_2" d="M58.5134 67.9768C62.9432 64.8653 67.0918 70.9182 63.8873 75.819C62.2524 78.3209 60.7877 78.7841 57.9453 77.6895C55.4573 76.7315 55.8591 69.8394 58.5134 67.9768Z" fill="var(--fill-0, #0D0D0D)"/>
<path id="149" d="M164.167 83.4402C165.822 87.6324 166.182 90.3738 165.925 96.8363C165.65 103.808 165.092 105.995 162.012 112.245C154.108 128.28 139.867 136.87 121.267 136.821C118.51 136.815 112.022 135.928 106.852 134.849C101.682 133.773 97.4004 132.886 97.339 132.878C97.2757 132.872 94.9243 135.972 92.1077 139.768C85.9876 148.018 81.926 151.519 73.0289 156.206C60.4483 162.833 48.8474 161.766 32.6268 152.489C23.1636 147.078 17.3562 139.172 16.2162 130.158C15.1434 121.683 17.1247 110.472 21.6534 99.3699C22.9677 96.1476 24.2839 92.9271 25.5982 89.7028C24.5432 88.8913 23.4862 88.0778 22.4313 87.2663C17.1405 83.1909 9.53987 75.0993 6.12552 69.9036C-0.234067 60.2325 -1.71263 48.5051 2.02237 37.3911C8.88273 16.9704 26.4097 9.65279 49.0889 17.7423C53.9145 19.4643 58.5501 21.0953 59.3933 21.3665C60.3533 21.6772 61.8437 20.5628 63.3994 18.3677C68.1914 11.6182 79.3568 4.60739 90.4727 1.36723C94.6412 0.151919 98.5999 -0.204348 104.498 0.106407C111.667 0.48446 113.771 1.06444 120.956 4.63317C130.855 9.54983 135.956 14.2724 139.356 21.6692C143.337 30.3308 142.656 40.0552 137.044 54.6112C136.579 55.8186 138.171 57.3962 143.295 60.8145C152.455 66.9188 161.533 76.758 164.167 83.4402ZM58.5125 67.9776C55.8582 69.8402 55.4564 76.7323 57.9444 77.6903C60.7867 78.7849 62.2514 78.3217 63.8864 75.8198C67.0909 70.919 62.9422 64.8661 58.5125 67.9776ZM71.9224 71.5939C70.7546 77.6804 71.7245 79.5825 75.7663 79.1174C79.0322 78.7413 80.8116 75.1923 79.7863 71.101C78.6324 66.4911 72.831 66.8554 71.9224 71.5939Z" fill="var(--fill-0, #67CDCD)"/>
</g>
</svg>
