<svg preserveAspectRatio="none" width="100%" height="100%" overflow="visible" style="display: block;" viewBox="0 0 261 248.674" fill="none" xmlns="http://www.w3.org/2000/svg">
<g id="Group 13832">
<path id="161" d="M122.901 119.36C125.557 116.698 126.395 116.641 129.49 118.911C132.538 121.145 131.978 129.147 128.627 131.251C127.837 131.746 127.05 132.241 126.26 132.736C125.47 132.241 124.683 131.746 123.893 131.251C120.709 129.252 120.117 122.152 122.901 119.36Z" fill="var(--fill-0, #0D0D0D)"/>
<path id="161_2" d="M103.168 115.851C108.383 113.052 112.251 117.721 111.155 125.492C110.639 129.147 105.656 130.559 102.516 127.943C99.5781 125.498 100.005 117.548 103.168 115.851Z" fill="var(--fill-0, #0D0D0D)"/>
<path id="150" d="M257.838 121.242C263.451 133.252 261.534 145.614 252.539 155.398C246.147 162.35 239.858 165.926 231.616 167.303C228.457 167.83 225.868 168.861 225.868 169.591C225.868 170.321 227.442 172.986 229.363 175.512C238.027 186.9 238.441 201.589 230.477 215.024C224.886 224.457 220.875 228.135 211.185 232.726C204.864 235.718 202.619 236.077 193.603 235.534C181.171 234.787 172.03 230.632 164.551 222.333C160.345 217.664 159.417 217.159 158.776 219.179C154.989 231.149 146.801 241.29 137.033 246.113C129.481 249.843 114.671 249.443 106.082 245.274C93.6366 239.231 84.15 225.612 81.702 210.261C81.4396 208.611 81.1745 206.961 80.9121 205.308C76.1053 205.289 71.2987 205.267 66.4919 205.248C54.7874 205.197 50.6702 204.615 44.6326 202.157C16.5411 190.72 14.5745 161.425 40.199 136.111C47.6405 128.759 48.5818 127.344 46.0337 127.344C36.3741 127.344 16.0002 119.308 9.18355 112.808C4.54176 108.385 0 98.7848 0 93.4045C0 84.8242 7.30366 75.005 16.5764 71.1206C24.5291 67.7908 43.5533 67.0361 55.4526 69.5788C61.0304 70.769 66.3322 71.7455 67.2303 71.7455C68.1743 71.7455 66.627 67.5825 63.5838 61.9155C55.5473 46.9514 53.6701 29.239 59.0016 18.6327C64.3332 8.02368 80.8039 5.30516 94.4804 12.7818C101.156 16.4282 121.725 35.539 121.725 38.0953C121.725 38.7039 122.258 39.2042 122.905 39.2042C123.554 39.2042 124.449 36.9159 124.896 34.1189C127.114 20.2368 139.481 4.41522 150.547 1.30987C160.045 -1.35726 170.978 0.144 177.035 4.94539C183.386 9.9794 189.296 21.8679 190.3 31.6249C191.095 39.3179 191.103 39.3314 195.055 38.4604C200.138 37.3432 211.415 37.4298 216.882 38.6281C223.515 40.0861 234.865 48.0443 238.79 53.9872C246.789 66.1056 246.269 78.462 237.243 90.7536C234.007 95.1573 231.8 99.0039 232.333 99.3041C232.869 99.6044 235.033 100.264 237.142 100.77C242.753 102.115 254.181 113.422 257.838 121.242ZM89.1678 94.8517C86.0057 96.5477 85.5784 104.498 88.516 106.943C91.6565 109.559 96.6391 108.147 97.1557 104.492C98.2512 96.7208 94.3831 92.052 89.1678 94.8517ZM108.898 98.3601C106.115 101.152 106.707 108.252 109.891 110.251C110.681 110.746 111.468 111.241 112.258 111.736C113.048 111.241 113.835 110.746 114.625 110.251C117.976 108.147 118.536 100.145 115.487 97.911C112.393 95.6415 111.555 95.6984 108.898 98.3601Z" fill="var(--fill-0, white)"/>
</g>
</svg>
