<svg preserveAspectRatio="none" width="100%" height="100%" overflow="visible" style="display: block;" viewBox="0 0 196 212.609" fill="none" xmlns="http://www.w3.org/2000/svg">
<g id="Group 13846">
<path id="131" d="M193.835 120.273C200.727 140.022 190.737 161.907 169.92 172.665C161.205 177.168 141.86 178.427 131.844 175.144C128.351 173.999 125.204 173.063 124.844 173.063C124.487 173.063 122.029 177.194 119.383 182.242C113.77 192.948 103.817 204.387 97.1353 207.8C83.1126 214.975 66.4801 214.109 48.6814 205.278C37.1683 199.568 23.256 186.87 19.2642 178.432C10.2736 159.441 12.0743 141.373 25.2288 118.547C27.2453 115.044 29.2668 111.54 31.2858 108.033C29.7857 107.175 28.2855 106.317 26.7854 105.459C18.5012 100.718 9.76241 93.2041 6.49498 88.0127C-0.905538 76.2607 -2.14359 58.8961 3.6155 47.5834C8.02858 38.9062 19.3207 28.0842 25.8812 26.2424C36.9807 23.1265 54.8951 27.0233 66.945 35.1739C70.1688 37.3573 73.0123 39.1427 73.2615 39.1427C73.5132 39.1427 75.5939 35.8085 77.8852 31.737C83.7136 21.3799 97.2868 7.668 105.887 3.44757C111.405 0.742698 114.813 -0.0151832 121.397 0.000229238C143.786 0.0541726 163.254 12.9878 168.585 31.3516C172.517 44.9068 168.276 67.9921 159.915 78.5444C157.85 81.1491 156.162 83.7692 156.162 84.3703C156.162 84.9688 159.517 87.16 163.614 89.2329C178.947 96.9931 189.492 107.823 193.835 120.273ZM93.0048 93.2246C92.748 94.9945 92.7659 97.779 93.0459 99.4102C93.4672 101.868 94.2351 102.31 97.5257 101.987C100.773 101.666 101.713 100.828 102.692 97.3835C104.169 92.192 102.057 86.7874 98.5507 86.7874C95.535 86.7874 93.6213 89.0093 93.0048 93.2246ZM114.22 90.0626C110.426 95.2643 113.336 103.528 118.962 103.528C125.178 103.528 125.486 90.096 119.301 88.5393C116.853 87.9228 115.481 88.3339 114.22 90.0626Z" fill="var(--fill-0, #67CDCD)"/>
<path id="161" d="M93.0071 93.2247C93.6236 89.0094 95.5373 86.7875 98.553 86.7875C102.059 86.7875 104.171 92.1921 102.694 97.3836C101.715 100.828 100.775 101.666 97.5279 101.987C94.2374 102.31 93.4694 101.869 93.0482 99.4103C92.7682 97.7791 92.7502 94.9946 93.0071 93.2247Z" fill="var(--fill-0, #0D0D0D)"/>
<path id="161_2" d="M114.218 90.0625C115.479 88.3338 116.851 87.9227 119.299 88.5392C125.485 90.0959 125.176 103.528 118.96 103.528C113.334 103.528 110.424 95.2642 114.218 90.0625Z" fill="var(--fill-0, #0D0D0D)"/>
</g>
</svg>
