<svg preserveAspectRatio="none" width="100%" height="100%" overflow="visible" style="display: block;" viewBox="0 0 115.789 116.378" fill="none" xmlns="http://www.w3.org/2000/svg">
<g id="Group 13813">
<path id="149" d="M114.916 61.7688C116.303 64.789 116.076 66.7123 113.951 69.9384C112.406 72.2867 106.671 76.0039 101.296 78.1396C97.8929 79.4913 83.4704 82.5934 80.4541 82.6211C78.9744 82.6343 78.6101 83.1161 77.5712 86.4412C76.1324 91.0415 71.2853 100.972 68.8341 104.342C63.5989 111.535 57.0859 116.362 52.5926 116.378C47.5752 116.395 43.5307 112.629 40.3574 104.987C38.3575 100.172 36.2785 90.631 36.2785 86.2723C36.2785 81.2615 35.7188 80.2649 32.4227 79.4161C23.9667 77.2381 9.4518 69.0223 3.66617 63.139C0.310685 59.7267 -0.400835 57.3903 0.185252 51.7024C0.504696 48.599 0.953536 47.6275 3.0748 45.4415C7.9681 40.4004 18.4517 36.8575 31.0552 35.9849C33.1633 35.8384 35.2713 35.6932 37.3807 35.5467C37.7846 34.1871 38.1899 32.8261 38.5951 31.4652C41.5097 21.668 52.1094 4.16858 56.9037 1.23682C59.6269 -0.427716 60.9891 -0.415832 63.7493 1.29491C67.4467 3.58646 72.8601 16.9199 75.5516 30.3603C76.1707 33.4545 76.8888 36.3717 77.1475 36.8429C77.4049 37.3155 80.8555 39.0249 84.8155 40.6433C98.4816 46.2269 112.204 55.8578 114.916 61.7688Z" fill="var(--fill-0, #FB652B)"/>
<path id="161" d="M39.2916 58.1151C41.7844 57.4938 44.8072 62.1195 43.2067 64.1084C42.042 65.5584 39.926 64.8224 38.3213 62.4099C37.088 60.5558 37.5404 58.5522 39.2916 58.1151Z" fill="var(--fill-0, #0D0D0D)"/>
<path id="161_2" d="M48.0769 50.8604C48.1092 48.4733 49.5695 47.3365 51.3846 48.2855C54.5982 49.9661 54.7381 54.5313 51.5845 54.751C49.7077 54.8831 48.0488 53.0419 48.0769 50.8604Z" fill="var(--fill-0, #0D0D0D)"/>
</g>
</svg>
