<svg preserveAspectRatio="none" width="100%" height="100%" overflow="visible" style="display: block;" viewBox="0 0 92.187 86.4618" fill="none" xmlns="http://www.w3.org/2000/svg">
<g id="Group 13820">
<path id="149" d="M91.4776 50.8814C92.9235 56.2694 92.1041 63.8425 89.5225 68.9585C83.9317 80.0372 68.6173 86.4717 47.8668 86.4617C39.5126 86.4581 32.947 85.5678 27.3209 83.6755C8.75277 77.43 -2.7333 57.8389 0.5622 38.035C1.65161 31.4904 3.18205 26.8445 6.14836 21.0919C10.1723 13.286 15.2729 8.36644 23.3416 4.50806C38.9579 -2.96137 61.3007 -0.910786 71.1754 8.8975C74.0598 11.7638 74.9201 13.6834 74.9201 17.2608C74.9201 19.6943 73.0877 23.1034 70.9126 24.7148C69.4094 25.8297 64.4207 27.5856 62.7575 27.5856C60.6469 27.5856 62.0209 28.6159 65.2154 29.4289C78.7239 32.869 88.8696 41.1559 91.4776 50.8814Z" fill="var(--fill-0, #67CDCD)"/>
<path id="161" d="M56.9137 53.8625C57.0754 53.5578 57.8422 53.1148 58.6172 52.8794C60.4238 52.3306 62.2607 54.539 62.3073 57.316C62.3342 58.9199 62.0242 59.3636 60.571 59.8051C58.8694 60.322 58.7624 60.2319 57.7095 57.3797C57.109 55.7505 56.7507 54.1677 56.9137 53.8625Z" fill="var(--fill-0, #0D0D0D)"/>
<path id="161_2" d="M70.4287 49.8991C71.4866 48.4027 73.729 49.27 74.8492 51.6107C76.3053 54.6509 74.423 57.3099 71.8637 55.8285C70.5897 55.0896 69.6127 51.0542 70.4287 49.8991Z" fill="var(--fill-0, #0D0D0D)"/>
</g>
</svg>
