<svg preserveAspectRatio="none" width="100%" height="100%" overflow="visible" style="display: block;" viewBox="0 0 16.6667 15.8333" fill="none" xmlns="http://www.w3.org/2000/svg">
<path id="Vector" d="M16.2466 7.24628L12.8964 10.0931L13.9171 14.3504C13.9734 14.5815 13.9589 14.8239 13.8754 15.0469C13.7919 15.2699 13.6432 15.4635 13.448 15.6033C13.2528 15.7431 13.02 15.8228 12.7788 15.8324C12.5377 15.8419 12.299 15.7808 12.0931 15.6569L8.33348 13.3783L4.57162 15.6569C4.36572 15.7801 4.12739 15.8406 3.88665 15.8307C3.64592 15.8208 3.41353 15.741 3.21875 15.6014C3.02398 15.4617 2.87553 15.2684 2.79209 15.0458C2.70866 14.8232 2.69397 14.5812 2.74988 14.3504L3.77428 10.0931L0.424122 7.24628C0.241945 7.09122 0.110193 6.88676 0.0453166 6.6584C-0.0195592 6.43005 -0.0146827 6.18794 0.0593371 5.9623C0.133357 5.73666 0.27324 5.5375 0.461516 5.38968C0.649792 5.24187 0.878117 5.15195 1.11798 5.13116L5.51041 4.78219L7.20485 0.744038C7.29657 0.523961 7.45267 0.335713 7.6533 0.203226C7.85394 0.0707401 8.09005 0 8.33162 0C8.57319 0 8.8093 0.0707401 9.00994 0.203226C9.21058 0.335713 9.36668 0.523961 9.45839 0.744038L11.1521 4.78219L15.5445 5.13116C15.7849 5.15118 16.0138 5.24059 16.2028 5.38821C16.3918 5.53582 16.5323 5.73506 16.6068 5.96097C16.6813 6.18688 16.6864 6.42942 16.6215 6.65819C16.5566 6.88695 16.4247 7.09178 16.2421 7.24701L16.2466 7.24628Z" fill="var(--fill-0, #1C1C1C)"/>
</svg>
