<svg preserveAspectRatio="none" width="100%" height="100%" overflow="visible" style="display: block;" viewBox="0 0 30 31.2501" fill="none" xmlns="http://www.w3.org/2000/svg">
<path id="Vector" d="M27.5 0H2.5C1.83696 0 1.20107 0.263392 0.732233 0.732233C0.263392 1.20107 0 1.83696 0 2.5V11.25C0 19.4875 3.9875 24.4797 7.33281 27.2172C10.9359 30.1641 14.5203 31.1641 14.6766 31.2063C14.8914 31.2647 15.118 31.2647 15.3328 31.2063C15.4891 31.1641 19.0688 30.1641 22.6766 27.2172C26.0125 24.4797 30 19.4875 30 11.25V2.5C30 1.83696 29.7366 1.20107 29.2678 0.732233C28.7989 0.263392 28.163 0 27.5 0Z" fill="var(--fill-0, #67CDCD)"/>
</svg>
