<svg preserveAspectRatio="none" width="100%" height="100%" overflow="visible" style="display: block;" viewBox="0 0 24 25.0001" fill="none" xmlns="http://www.w3.org/2000/svg">
<path id="Vector" d="M22 0H2C1.46957 0 0.960859 0.210714 0.585786 0.585786C0.210714 0.960859 0 1.46957 0 2V9C0 15.59 3.19 19.5838 5.86625 21.7738C8.74875 24.1313 11.6163 24.9313 11.7413 24.965C11.9131 25.0118 12.0944 25.0118 12.2663 24.965C12.3913 24.9313 15.255 24.1313 18.1413 21.7738C20.81 19.5838 24 15.59 24 9V2C24 1.46957 23.7893 0.960859 23.4142 0.585786C23.0391 0.210714 22.5304 0 22 0Z" fill="var(--fill-0, #67CDCD)"/>
</svg>
