<svg preserveAspectRatio="none" width="100%" height="100%" overflow="visible" style="display: block;" viewBox="0 0 199.466 243.205" fill="none" xmlns="http://www.w3.org/2000/svg">
<g id="Illustration container">
<path id="161" d="M70.707 94.8707C73.4261 91.1402 79.5203 92.3163 80.1386 96.6882C81.0315 103.016 79.1679 107.044 75.345 107.044C69.7075 107.044 67.0025 99.9476 70.707 94.8707Z" fill="var(--fill-0, #0D0D0D)"/>
<path id="151" d="M198.696 44.8554C201.137 65.7586 197.731 91.6868 189.102 117.832C183.092 136.045 167.737 167.946 157.34 183.815C134.186 219.163 105.972 243.205 87.6406 243.205C64.2524 243.205 45.5714 226.477 26.9712 188.886C15.3118 165.325 9.62807 149.605 5.47575 129.454C-6.80206 69.8561 2.21327 14.3936 26.0552 2.8208C33.334 -0.710258 37.0182 -0.857614 46.5972 1.9944C63.9231 7.15229 83.3755 26.368 95.3817 50.1896C97.4882 54.3708 99.7683 57.795 100.444 57.795C101.121 57.795 103.296 55.3302 105.284 52.3221C114.233 38.7642 134.276 21.5019 151.902 12.1686C160.68 7.52214 163.004 6.898 169.514 7.42968C185.594 8.74733 196.043 22.1463 198.696 44.8554ZM48.5072 92.3572C43.5545 98.4108 45.2389 105.594 51.6162 105.594C54.7918 105.594 55.9738 104.779 56.6384 102.121C58.9558 92.8629 53.4802 86.2833 48.5072 92.3572ZM70.7134 94.8711C67.009 99.9481 69.7139 107.045 75.3515 107.045C79.1744 107.045 81.038 103.017 80.1451 96.6887C79.5267 92.3167 73.4325 91.1407 70.7134 94.8711Z" fill="var(--fill-0, #E4DECE)"/>
<path id="152" d="M48.5043 92.357C53.4772 86.2831 58.9529 92.8627 56.6354 102.121C55.9708 104.779 54.7889 105.594 51.6132 105.594C45.2359 105.594 43.5515 98.4107 48.5043 92.357Z" fill="var(--fill-0, #0D0D0D)"/>
</g>
</svg>
