<svg preserveAspectRatio="none" width="100%" height="100%" overflow="visible" style="display: block;" viewBox="0 0 16.5 21" fill="none" xmlns="http://www.w3.org/2000/svg">
<path id="Vector" d="M13.7806 11.1555C13.7841 12.0616 14.0435 12.9467 14.5267 13.7017C15.01 14.4568 15.6959 15.0488 16.5 15.4046C16.1739 16.4651 15.7016 17.4712 15.0977 18.3917C14.2527 19.6705 13.3753 20.9451 11.9953 20.9714C10.6376 20.9976 10.202 20.1377 8.65178 20.1377C7.10058 20.1377 6.61526 20.9451 5.33357 20.9987C4.0002 21.0501 2.98599 19.6148 2.13389 18.3402C0.391196 15.7322 -0.938117 10.9728 0.847134 7.76005C1.26642 6.98285 1.87318 6.33172 2.60807 5.87035C3.34297 5.40897 4.18084 5.15314 5.03974 5.12787C6.34879 5.10162 7.58286 6.04026 8.38329 6.04026C9.1827 6.04026 10.6832 4.91159 12.2618 5.07748C12.9933 5.10382 13.7089 5.30566 14.3523 5.66711C14.9958 6.02856 15.5496 6.53977 15.9701 7.16054C15.3088 7.58001 14.7611 8.1666 14.3783 8.86535C13.9955 9.56409 13.7892 10.3521 13.7806 11.1555ZM11.2283 3.35244C11.9942 2.42358 12.3738 1.21818 12.2841 0C11.1298 0.116074 10.0621 0.685605 9.30023 1.5917C8.91963 2.03035 8.62828 2.544 8.44358 3.10197C8.25887 3.65994 8.18461 4.25076 8.22523 4.83914C8.80298 4.84817 9.37493 4.71867 9.8964 4.46078C10.4179 4.20288 10.8748 3.82356 11.2314 3.35244H11.2283Z" fill="var(--fill-0, #1C1C1C)"/>
</svg>
