<svg preserveAspectRatio="none" width="100%" height="100%" overflow="visible" style="display: block;" viewBox="0 0 106 24" fill="none" xmlns="http://www.w3.org/2000/svg">
<g id="Vector">
<path d="M101.109 5.5668C102.975 5.5668 104.491 5.96514 105.685 6.54294L104.941 8.90954C103.682 8.33391 102.759 8.04973 101.461 8.04973C100.837 8.04973 100.236 8.14081 99.7827 8.35068C99.3269 8.5618 98.9839 8.91519 98.9839 9.44014C98.9839 10.2123 99.5191 10.664 100.195 10.9907C100.536 11.1554 100.93 11.2972 101.342 11.4362C101.758 11.5766 102.19 11.7135 102.626 11.8726C103.496 12.1907 104.339 12.5834 104.964 13.2066C105.582 13.8219 106 14.6743 106 15.9441C106 17.5289 105.227 18.5776 104.191 19.2391C103.147 19.9063 101.839 20.1757 100.811 20.1757C99.007 20.1757 97.1169 19.8728 95.8253 19.3268L96.5272 16.8035C97.8371 17.3587 99.1712 17.6376 100.459 17.6376C101.077 17.6376 101.701 17.5688 102.178 17.3469C102.42 17.2347 102.631 17.0796 102.783 16.8666C102.935 16.6515 103.018 16.3898 103.018 16.0819C103.018 15.649 102.893 15.2908 102.672 14.9915C102.454 14.696 102.15 14.4675 101.802 14.2772C101.118 13.9022 100.2 13.6432 99.3336 13.3353C98.4497 13.0213 97.5973 12.651 96.9648 12.0522C96.3419 11.4624 95.9202 10.6391 95.9202 9.38503C95.9202 7.79024 96.6889 6.84889 97.716 6.29378C98.7575 5.7309 100.067 5.5668 101.109 5.5668Z" fill="#013D47"/>
<path d="M85.2661 5.84237V14.1803C85.2661 15.1898 85.6566 15.9637 86.2508 16.4823C86.8408 16.9973 87.6208 17.2518 88.3936 17.2518C89.1538 17.2518 89.927 16.9968 90.5133 16.4819C91.1036 15.9634 91.4941 15.1897 91.4941 14.1803V5.84237H94.4494V14.9244C94.4494 16.6752 93.6964 17.9804 92.5684 18.8534C91.4349 19.7308 89.9158 20.1757 88.3936 20.1757C86.8577 20.1757 85.3317 19.7306 84.1949 18.8533C83.0637 17.9802 82.3108 16.6752 82.3108 14.9244V5.84237H85.2661Z" fill="#013D47"/>
<path d="M65.8374 0V19.9002H62.8821V0H65.8374Z" fill="#013D47"/>
<path d="M54.3996 5.5668C58.4599 5.5668 61.566 8.69925 61.566 12.885C61.566 17.0427 58.4604 20.1757 54.3996 20.1757C50.3113 20.1757 47.2061 17.0422 47.2061 12.885C47.2061 8.69974 50.3118 5.5668 54.3996 5.5668ZM54.3996 8.46312C51.8544 8.46313 50.324 10.5089 50.324 12.885C50.324 15.2327 51.8536 17.3069 54.3996 17.3069C56.9194 17.3069 58.4482 15.2317 58.4482 12.885C58.4482 10.5099 56.9187 8.46312 54.3996 8.46312Z" fill="#013D47"/>
<path d="M46.7618 5.84237V7.69637L40.5165 17.1416H46.9514V19.9001H36.384V18.0186L42.6025 8.62846H36.6549V5.84237H46.7618Z" fill="#013D47"/>
<path d="M28.5265 5.5668C32.1424 5.5668 34.9344 8.02601 34.9344 11.7275V13.534H25.1613L25.2139 13.7826C25.4112 14.7147 25.8641 15.5975 26.607 16.2479C27.3517 16.8999 28.3751 17.3069 29.6914 17.3069C31.745 17.3069 32.8839 16.7175 34.1326 16.0195L35.0743 18.6782C33.1563 19.6143 31.5075 20.1757 29.1767 20.1757C26.7664 20.1757 24.973 19.2599 23.7702 17.897C22.564 16.5303 21.9416 14.702 21.9019 12.8667C21.8621 11.0311 22.4056 9.20365 23.5116 7.83888C24.6139 6.47875 26.2834 5.5668 28.5265 5.5668ZM28.3098 8.46312C26.6943 8.46312 25.6358 9.72182 25.2432 11.2341L25.1762 11.492H31.4618L31.4051 11.2407C31.2089 10.3708 30.8471 9.67413 30.3205 9.19417C29.7914 8.71197 29.1117 8.46312 28.3098 8.46312Z" fill="#013D47"/>
<path d="M17.0354 8.27572C17.0354 6.21969 16.5085 5.01254 15.8785 4.32805C15.2612 3.6574 14.3708 3.29899 13.2335 3.294C11.4275 3.3624 9.6282 4.39942 7.98191 6.18295C7.46429 6.74372 6.97445 7.36537 6.51819 8.02959C6.97365 9.53435 7.40222 11.1199 7.73721 12.6696C8.2844 15.201 8.62433 17.8149 8.32551 19.8589C8.17516 20.8872 7.84137 21.9315 7.14019 22.7331C6.39027 23.5903 5.35739 24.0138 4.16323 23.9997C2.91973 23.9849 1.87972 23.4665 1.15693 22.5423C0.479303 21.6759 0.163892 20.5633 0.0513398 19.4473C-0.17377 17.2149 0.355922 14.4155 1.35531 11.7314C1.87603 10.3329 2.54043 8.92281 3.3308 7.59389C2.43948 4.8318 1.52283 2.515 1.09928 1.57487L3.74237 0.342399C4.09181 1.11804 4.72546 2.69172 5.41637 4.66091C5.56261 4.48986 5.71113 4.32198 5.86236 4.15814C7.80823 2.05005 10.2931 0.432015 13.1619 0.336637L13.1856 0.335898H13.2094C14.9684 0.335903 16.7095 0.903387 18.0008 2.30634C19.2837 3.70022 19.9429 5.72355 19.9429 8.27572C19.9429 9.66082 19.5781 10.8949 18.9966 11.9495C20.3852 14.3079 21.1138 17.9995 20.7816 23.2386L17.88 23.0482C18.1495 18.7984 17.67 16.0875 16.9516 14.3847C16.4501 14.7939 15.9209 15.1324 15.3932 15.3944C14.2667 15.9536 12.9673 16.2586 11.7893 16.0207C11.1817 15.898 10.5743 15.6216 10.082 15.1254C9.58303 14.6224 9.28307 13.9743 9.17188 13.2533C8.91106 11.5618 9.9543 10.181 11.1362 9.45368C12.3617 8.69949 14.0239 8.42201 15.653 9.01385C16.0646 9.16338 16.46 9.36047 16.8363 9.60674C16.9641 9.18805 17.0354 8.74262 17.0354 8.27572ZM4.51525 11.6825C4.35815 12.0461 4.21097 12.4123 4.07435 12.7792C3.16448 15.2229 2.78155 17.5368 2.94378 19.1454C3.0249 19.9499 3.22823 20.4398 3.43217 20.7006C3.59093 20.9036 3.79534 21.0371 4.19707 21.0419C4.64815 21.0472 4.8401 20.9129 4.96806 20.7666C5.14474 20.5646 5.34208 20.1594 5.44963 19.4238C5.66659 17.9398 5.4298 15.7675 4.89748 13.3049C4.78133 12.7675 4.65247 12.2249 4.51525 11.6825ZM14.6752 11.7995C13.9206 11.5254 13.1667 11.6612 12.6411 11.9847C12.0719 12.3349 12.029 12.696 12.0443 12.7949C12.0711 12.969 12.121 13.0166 12.1285 13.0242C12.1427 13.0385 12.1985 13.0876 12.3555 13.1193C12.7069 13.1903 13.3433 13.1207 14.1181 12.7361C14.4848 12.554 14.8419 12.3223 15.1734 12.0476C14.9989 11.937 14.831 11.8562 14.6752 11.7995Z" fill="#013D47"/>
<path d="M73.2379 10.3792C73.1371 7.71957 75.5769 5.28938 78.565 5.53855C79.0093 5.5756 79.4558 5.73939 79.8285 6.07264C80.1891 6.39507 80.3891 6.79392 80.4975 7.15352C80.7003 7.82622 80.6473 8.57413 80.5427 9.20433C80.407 10.0212 80.1271 10.9538 79.7688 11.9055C80.1719 11.9109 80.6164 11.8963 81.1056 11.8565L81.3376 14.805C80.29 14.8903 79.3406 14.883 78.4891 14.7886C77.9171 15.9164 77.2854 16.9973 76.6745 17.877C76.2692 18.4605 75.843 18.9994 75.4216 19.4092C75.2114 19.6137 74.9691 19.8188 74.7009 19.9807C74.4484 20.133 74.057 20.3178 73.578 20.3178C72.7621 20.3178 72.1731 19.8312 71.8395 19.4791C71.4764 19.0959 71.1657 18.6088 70.8999 18.1157C70.3627 17.1191 69.8579 15.8095 69.4108 14.4597C68.511 11.7432 67.7596 8.59894 67.4089 6.80322L70.2608 6.22673C70.5926 7.92567 71.3141 10.9434 72.166 13.5152C72.5947 14.8095 73.0353 15.9255 73.4493 16.6935C73.5182 16.8213 73.5827 16.9317 73.6416 17.0267C73.832 16.8094 74.0543 16.5236 74.2998 16.1701C74.7303 15.5503 75.1882 14.7886 75.6265 13.9674C75.5905 13.9481 75.5546 13.9288 75.5192 13.9089C74.078 13.0975 73.2919 11.8045 73.2379 10.3792ZM77.7031 8.5228C76.7149 8.72876 76.1185 9.6123 76.1433 10.2653C76.1541 10.5528 76.2838 10.9421 76.8797 11.2934C77.28 10.2978 77.5622 9.39506 77.6757 8.71176C77.6868 8.64441 77.6958 8.58138 77.7031 8.5228Z" fill="#013D47"/>
</g>
</svg>
