<svg preserveAspectRatio="none" width="100%" height="100%" overflow="visible" style="display: block;" viewBox="0 0 288.065 214.259" fill="none" xmlns="http://www.w3.org/2000/svg">
<g id="blue">
<path id="151" d="M286.464 72.5717C288.797 80.071 288.742 80.9714 285.22 92.0925C279.286 110.836 265.281 130.62 241.759 153.477C224.862 169.897 211.852 180.522 195.269 191.442C182.863 199.609 164.438 209.345 155.193 212.616C140.686 217.748 116.686 210.72 89.8666 193.484C52.9794 169.777 18.9363 135.589 5.84637 109.103C1.25397 99.8151 0.456367 97.0009 0.0926874 88.7943C-0.235879 81.3953 0.263313 77.6832 2.33002 72.1678C5.5906 63.4671 14.5997 53.8835 23.8823 49.2459C36.0242 43.1787 51.2086 45.5615 61.0254 55.0699C62.3848 56.3867 63.7417 57.7009 65.1011 59.0176C65.1011 55.8799 65.1011 52.7423 65.1011 49.6046C65.1011 26.783 73.5787 11.0595 89.997 3.42226C103.902 -3.04372 117.857 -0.28727 129.299 11.185C135.244 17.1468 141.599 28.5713 141.599 33.2992C141.599 34.7263 142.164 35.8926 142.853 35.8926C143.543 35.8926 144.108 35.2957 144.108 34.5633C144.108 31.7015 152.006 17.4352 155.788 13.4623C157.985 11.1523 162.605 7.76131 166.054 5.92535C171.569 2.98581 173.756 2.58457 184.238 2.58206C194.055 2.57955 197.034 3.05606 201.168 5.29081C215.976 13.2893 221.496 29.8279 216.186 50.2668C215.135 54.3124 214.488 57.8388 214.747 58.0997C215.01 58.3605 219.397 56.5948 224.498 54.172C237.413 48.0396 249.953 46.1986 260.402 48.8974C273.989 52.4087 282.632 60.2567 286.464 72.5717Z" fill="var(--fill-0, #FB652B)"/>
<path id="161" d="M140.708 151.412C142.681 154.97 140.419 159.749 136.099 161.163C132.552 162.322 130.647 157.579 132.442 152.065C134.095 146.991 138.085 146.676 140.708 151.412Z" fill="var(--fill-0, #0D0D0D)"/>
<path id="161_2" d="M99.169 148.699C99.6506 144.397 102.296 141.369 105.432 141.533C110.64 141.798 111.352 148.028 106.648 152.158C103.583 154.848 98.7311 152.606 99.169 148.699Z" fill="var(--fill-0, #0D0D0D)"/>
</g>
</svg>
