<svg preserveAspectRatio="none" width="100%" height="100%" overflow="visible" style="display: block;" viewBox="0 0 253.606 258.056" fill="none" xmlns="http://www.w3.org/2000/svg">
<g id="Illustration background container">
<path id="161" d="M106.761 112.171C107.177 110.566 108.73 109.768 111.426 109.768C116.973 109.768 119.631 115.225 116.664 120.529C111.571 129.618 103.901 123.145 106.761 112.171Z" fill="var(--fill-0, #0D0D0D)"/>
<path id="131" d="M251.806 119.979C256.203 130.098 252.256 143.702 243.078 150.068C237.591 153.876 227.584 157.832 223.437 157.832C219.857 157.832 220.172 158.782 225.798 165.031C240.068 180.865 238.662 200.646 222.464 212.026C216.95 215.896 215.673 216.192 204.658 216.179C195.021 216.165 191.709 215.584 187.025 213.088C183.853 211.398 180.924 210.015 180.519 210.015C180.11 210.015 179.779 214.116 179.779 219.126C179.779 224.136 179.064 230.632 178.187 233.555C176.163 240.335 168.246 249.646 162.444 252.078C156.028 254.766 145.849 254.349 138.688 251.109C131.875 248.027 121.75 238.872 118.682 233.018C117.592 230.941 116.255 229.256 115.71 229.276C115.164 229.295 113.521 231.911 112.058 235.089C108.62 242.551 99.7965 252.106 93.263 255.448C73.5118 265.551 55.3905 245.271 54.7659 212.373C54.7029 209.07 54.6399 205.766 54.5797 202.462C50.1856 202.462 45.7944 202.462 41.4004 202.462C29.1279 202.462 27.7636 202.177 21.5205 198.309C12.6119 192.792 7.53583 185.281 5.57441 174.704C3.36097 162.771 5.22925 157.306 14.4419 148.767C18.4332 145.066 22.9039 141.354 24.3749 140.519C26.802 139.138 26.4048 138.67 20.0822 135.456C6.61528 128.616 -0.148205 117.546 0.00246269 102.603C0.114779 91.0641 4.0594 83.139 11.9927 78.493C16.8114 75.6714 18.7564 75.3646 28.1854 75.9262C37.7898 76.4987 38.7953 76.3261 37.9049 74.2825C33.437 64.0399 31.6316 56.3394 32.322 50.4496C34.9107 28.2714 55.059 22.1954 73.1665 38.136C74.791 39.566 76.4182 40.9987 78.0427 42.4314C78.2728 38.4127 78.5002 34.394 78.7276 30.3752C79.5658 15.6317 83.086 6.69304 89.6277 2.69624C95.4106 -0.840336 104.358 -0.90334 111.006 2.5401C117.63 5.97258 126.78 15.4975 130.812 23.1569C132.573 26.5045 134.603 29.4 135.324 29.5918C136.044 29.7835 138.501 27.3509 140.781 24.1924C143.06 21.0311 147.909 16.4371 151.552 13.9826C157.091 10.2488 159.447 9.52012 165.964 9.52012C176.574 9.52012 184.047 14.336 188.92 24.3102C192.068 30.756 192.383 32.7585 191.816 42.6095C191.197 53.3178 191.268 53.6411 194.04 52.8083C195.613 52.3371 201.831 51.6249 207.858 51.2276C217.503 50.5921 219.544 50.888 224.9 53.7013C239.495 61.3689 240.101 81.5063 226.163 95.8006C223.79 98.2332 222.092 100.392 222.388 100.603C222.684 100.814 226.352 102.027 230.54 103.304C239.194 105.939 249.072 113.686 251.806 119.979ZM86.5377 109.174C81.7492 113.519 84.149 122.126 90.1455 122.126C94.3697 122.126 96.9035 116.609 95.1311 111.278C93.671 106.881 90.0414 105.994 86.5377 109.174ZM106.76 112.171C103.9 123.145 111.57 129.619 116.663 120.529C119.63 115.226 116.972 109.769 111.425 109.769C108.73 109.769 107.176 110.566 106.76 112.171Z" fill="var(--fill-0, #67CDCD)"/>
<path id="161_2" d="M86.5358 109.174C90.0395 105.994 93.6691 106.881 95.1293 111.278C96.9017 116.609 94.3678 122.126 90.1437 122.126C84.1471 122.126 81.7473 113.519 86.5358 109.174Z" fill="var(--fill-0, #0D0D0D)"/>
</g>
</svg>
